<?xml version="1.0"?>
<svg width="640" height="480.00000000000006" xmlns="http://www.w3.org/2000/svg" xmlns:svg="http://www.w3.org/2000/svg">
 <!-- Created with SVG-edit - http://svg-edit.googlecode.com/ -->
 <g>
  <title>Layer 1</title>
  <line transform="rotate(171.0546112060547 167.29998779296872,228.80001831054688) " id="svg_3" y2="258.800018" x2="160.799988" y1="198.800018" x1="173.799988" stroke-width="5" stroke="#000000" fill="none"/>
  <line id="svg_1" y2="199.800018" x2="168.799988" y1="79.800018" x1="347.799988" stroke-width="5" stroke="#000000" fill="none"/>
  <line id="svg_5" y2="212.800018" x2="203.799988" y1="108.800018" x1="366.799988" stroke-linecap="null" stroke-linejoin="null" stroke-dasharray="null" stroke-width="5" stroke="#000000" fill="none"/>
  <line id="svg_2" y2="272.800018" x2="225.799988" y1="154.800018" x1="408.799988" stroke-width="5" stroke="#000000" fill="none"/>
  <line stroke="#000000" transform="rotate(90.45116424560547 197.3504180908203,266.3948669433594) " id="svg_4" y2="297.335772" x2="190.85043" y1="235.453942" x1="203.85043" stroke-width="5" fill="none"/>
  <line stroke="#000000" id="svg_6" y2="239.299999" x2="221.799999" y1="134.299995" x1="387.800008" stroke-linecap="null" stroke-linejoin="null" stroke-dasharray="null" stroke-width="5" fill="none"/>
  <ellipse transform="rotate(70.20112609863281 170.79998779296872,254.80001831054685) " stroke="#000000" rx="5" id="svg_9" cy="254.800018" cx="170.799988" stroke-linecap="null" stroke-linejoin="null" stroke-dasharray="null" stroke-width="5" fill="#000000"/>
  <path d="m170.799988,200.800018c1,1.166672 1.591873,1.799301 2.442841,2.000168c0.72348,0.170761 1.630417,0.357697 2.35582,0.715836c0.800415,0.395172 1.692932,0.555725 2.412003,0.894669c0.998383,0.470596 1.588974,0.790054 2.389343,1.189331c0.995041,0.496399 1.711975,0.959793 2.642822,1.142838c0.842941,0.165756 1.757172,0.057159 2.557175,0.057159c0.899994,0 1.849594,-0.291077 2.679169,0c0.642334,0.225388 1.131454,0.994659 2.020828,1c0.899979,0.005402 1.939789,-0.29187 2.5,0.166672c0.661163,0.541168 1.199997,0.833328 2.100006,0.833328c0.899994,0 1.779037,-0.025116 2.604492,0c0.939636,0.028595 1.366074,0.763641 2.295502,1c0.823624,0.209442 1.022461,0.942047 1.916,1c0.802856,0.052063 1.299072,0.934189 2.136673,1c0.9086,0.071396 1.230194,0.680893 1.863327,1.283997c0.574112,0.54689 1.44371,0.631241 2.05867,1.141342c0.599258,0.497086 1.023071,1.221985 1.02533,2.09549c0.002258,0.879166 -0.168457,1.942505 0.5,2.458344c0.665939,0.513901 1.544083,0.639633 2.216003,1.106155c0.772629,0.536453 1.241287,1.197037 1.283997,2.113342c0.04129,0.885696 0.296204,1.581467 0.947327,2.153992c0.639206,0.562057 1.191025,1.096695 1.768677,1.731339c0.588593,0.646652 1.082413,1.219101 1.283997,2.082672c0.182159,0.780365 0.746552,1.307953 1.004501,2.12883c0.236801,0.753601 1.462814,0.523468 1.996826,0.988495c0.611191,0.532227 0.988251,1.236649 0.998672,2.115997c0.010605,0.895447 0,1.821503 0,2.700012c0,0.899994 0,1.699997 0,2.614655c0,0.896011 0.118607,1.760971 0.647339,2.338013c0.633423,0.691299 1.552277,0.511108 2.185989,1.113998c0.613846,0.584 1.105774,1.048553 1.166672,1.933334c0.061798,0.897873 0,1.699997 0,2.614655c0,0.896011 0,1.785339 0,2.674667c0,0.894669 0,1.832169 0,2.710678c0,0.899994 0,1.699997 0,2.614655c0,0.860001 0,1.806183 0,2.685333c0,0.895508 0,1.821503 0,2.700165c0,0.785187 0,1.714508 0,2.657013c0,0.853485 0,1.742828 0,2.642822c0,0.895508 0,1.821503 0,2.700012c0,0.899994 0,1.699982 0,2.614655c0,0.860016 -0.520828,1.285339 -1.399994,1.285339c-0.900009,0 -1.870438,0.274109 -2.684006,-0.085327c-0.765778,-0.338318 -1.448456,-0.67569 -2.305328,-0.914673c-0.683029,-0.190491 -1.01207,-1.089111 -1.606171,-1.647339c-0.508316,-0.4776 -1.008072,-1.133392 -1.805832,-1.351318c-0.884995,-0.241791 -1.37146,-0.80545 -2.234665,-1.001343c-0.849655,-0.19281 -1.246368,-0.957275 -2.164001,-1c-0.898865,-0.04184 -1.774673,0 -2.601334,0c-0.898666,0 -1.798676,0 -2.677841,0c-0.956833,0 -1.870895,0.131653 -2.620834,-0.221344c-0.775513,-0.365051 -1.432541,-0.866974 -1.935989,-1.353333c-0.56813,-0.548828 -1.66658,-0.02713 -2.528,-0.461334c-0.698883,-0.352264 -1.314499,-0.963989 -2.140503,-0.963989c-0.895508,0 -1.795502,0 -2.68483,0c-0.896011,0 -1.810669,0 -2.710678,0c-0.899994,0 -1.778656,0 -2.604492,0c-0.895508,0 -1.795502,0 -2.68483,0c-0.896011,0 -1.908554,0.159332 -2.557999,-0.352661c-0.614624,-0.484528 -1.355225,-0.533508 -2.27417,-0.647491c-0.899033,-0.111511 -1.432617,-0.80957 -2.37851,-0.989166c-0.8638,-0.164001 -1.246933,-0.692078 -2.010666,-1c-0.824875,-0.332581 -1.789322,-0.010681 -2.68483,-0.010681c-0.87117,0 -1.804504,0 -2.704498,0c-0.800003,0 -1.29567,-0.325348 -2.000168,-0.87851c-0.562164,-0.441376 -1.599854,-0.115509 -2.563828,-0.12149c-0.861389,-0.005341 -1.430664,-0.610596 -1.436005,-1.5c-0.005402,-0.899963 -0.156937,-1.809753 0,-2.666672c0.144363,-0.788223 0.981354,-1.268784 1,-2.133331c0.019379,-0.898453 0.386902,-1.444366 1.283997,-1.701324c0.719849,-0.206192 0.520096,-1.320587 0.717331,-2.197342c0.180618,-0.802872 0.998672,-1.085327 0.998672,-1.968002c0,-0.833328 0,-1.633331 0,-2.533325c0,-0.942841 0,-1.874664 0,-2.736008c0,-0.863998 0,-1.762665 0,-2.730667c0,-0.833328 0,-1.633331 0,-2.666656c0,-0.814011 0,-1.6875 0,-2.566666c0,-0.900009 0,-1.798676 0,-2.766678c0,-0.858658 0,-1.634659 0,-2.666656c0,-0.814011 -0.358673,-1.765594 0.020828,-2.645844c0.307953,-0.714279 0.976913,-1.225311 0.979172,-2.084824c0.002502,-0.956833 -0.095459,-1.880539 0.283997,-2.636002c0.435577,-0.867203 0.716003,-1.633331 0.716003,-2.504501c0,-0.859497 0,-1.731506 0,-2.68483c0,-0.896011 -0.076111,-1.82605 0.085327,-2.496002c0.231827,-0.962051 0.830948,-1.769272 0.914673,-2.635498c0.084579,-0.875092 0,-1.779175 0,-2.677841c0,-0.88533 0,-1.801331 0,-2.601334c0,-0.899994 0,-1.763992 0,-2.720825l0.010666,-0.8685l0.489334,-0.569" id="svg_11" stroke-linecap="null" stroke-linejoin="null" stroke-dasharray="null" stroke-width="5" stroke="#000000" fill="#ff7f00"/>
  <path d="m168.799988,256.800018c1.800003,0 2.815659,0.002991 2.998672,-0.801331c0.202652,-0.890564 0.351196,-1.892151 -0.019501,-2.677841c-0.332764,-0.705292 -1.543625,-0.198929 -2.3685,-0.531494c-0.763733,-0.307907 -1.063934,-0.92009 -1.636002,-0.414673c-0.643127,0.568192 -0.973999,1.226669 -0.97467,2.258667c-0.000504,0.777344 -0.058136,1.935257 0.704498,2.162186c0.823807,0.245117 1.872772,0.301971 2.68483,-0.006195c0.729126,-0.276703 0.43367,-1.642349 1.185333,-1.978653c0.776749,-0.347519 1.419998,-0.585281 1.425339,-1.531494c0.004959,-0.87915 0.37384,-2.042191 -0.221497,-2.479172c-0.708069,-0.51973 -1.600235,-0.300537 -1.778671,-1.099838c-0.188263,-0.843353 -0.896194,-2.282822 -1.538498,-1.8535c-0.584381,0.39061 0.780594,1.338242 1.638504,1.832001c0.737457,0.424438 1.522324,0.779312 1.900162,1.406677c0.420303,0.697876 0,1.714661 0,2.514664c0,1.033325 0,1.810669 0,2.699997c0,0.979156 0.397568,1.767944 1.295502,1.495514c0.766983,-0.232697 0.62648,-1.320404 0.704498,-2.134186c0.083725,-0.873306 0.957382,-1.143692 1,-2.061325c0.041748,-0.898865 -0.362747,-1.513336 -0.942841,-2.152664c-0.492493,-0.54277 -1.027863,-1.00322 -1.057159,-1.947342c-0.027863,-0.898239 -0.432983,-1.559418 -0.964005,-2.125336c-0.47644,-0.507751 -1.234665,-0.575989 -1.978836,-0.931824l-0.052658,-0.938339l0.431503,-0.668503l0.863998,-0.035995" id="svg_13" stroke-linecap="null" stroke-linejoin="null" stroke-dasharray="null" stroke-width="5" stroke="#000000" fill="none"/>
  <line id="svg_14" y2="156.800018" x2="405.799988" y1="77.800018" x1="345.799988" stroke-linecap="null" stroke-linejoin="null" stroke-dasharray="null" stroke-width="5" stroke="#000000" fill="none"/>
  <path d="m169.799988,198.800018c1.814667,-0.010666 2.673676,-0.305298 3.253326,-0.801331c0.722168,-0.617996 1.547516,-0.717331 2.6035,-1.298508c0.607651,-0.334427 1.216736,-1.197937 1.944504,-1.616165c0.731903,-0.420609 1.762177,-0.181534 2.494171,-0.636658c0.822495,-0.511383 1.560303,-0.657974 2.304504,-1.258011c0.653976,-0.527298 1.521103,-1.00293 2.114655,-1.473328c0.738586,-0.585327 1.389725,-0.827316 2.285339,-0.916c0.845703,-0.08374 1.303101,-0.798416 2.166672,-1c0.780365,-0.182159 1.17746,-0.957474 1.833328,-1.5c0.602982,-0.498779 1.401352,-0.59407 1.995499,-1.147339c0.471725,-0.439255 1.379837,-0.818542 2.10434,-1.231323c0.791779,-0.451111 1.5271,-0.863785 1.879333,-1.621338c0.390228,-0.839294 0.3983,-1.317535 1.219498,-1.501328c0.807037,-0.180618 1.24794,-1.052475 1.82666,-1.573334c0.637878,-0.574081 0.488235,-1.422531 1.059998,-2.139999c0.565887,-0.710098 1.527481,-0.628189 2.136169,-1.164001c0.707687,-0.622955 1.306686,-0.938919 1.799332,-1.621338c0.448593,-0.621384 1.417221,-0.662781 2.031845,-1.147339c0.649445,-0.512009 1.528992,-0.45079 1.983322,-0.927322c0.552979,-0.580002 1.548874,-0.317612 2.315842,-0.482498c1.043198,-0.224274 1.291122,-1.19014 1.869659,-1.821503c0.560791,-0.612 1.58757,-0.660202 2.278503,-1.142166c0.685211,-0.477966 1.042831,-1.204773 1.721329,-1.857834c0.579468,-0.557739 1.181641,-1.121582 1.778671,-1.621338c0.625107,-0.52327 1.445831,-0.66362 2.052673,-1.147339c0.646683,-0.515488 1.376328,-0.723282 2.168823,-1.231155c0.746582,-0.478455 1.387131,-0.629318 2.135666,-1.064346c0.730377,-0.424469 1.877075,0.189774 2.558838,-0.341156c0.626572,-0.487946 0.86409,-1.326874 1.369339,-2c0.541107,-0.720901 1.43248,-0.938782 1.881332,-1.716003c0.358963,-0.621582 1.351578,-0.936371 1.843994,-1.425339c0.535583,-0.53183 1.148163,-1.092758 1.705338,-1.658661c0.660675,-0.671021 1.568314,-0.587631 2.162491,-1.137329c0.609467,-0.563843 1.041397,-0.909805 1.768173,-1.353333c0.770798,-0.470398 1.930099,-0.235153 2.332001,-1c0.430878,-0.819977 0.424957,-1.618332 1.105331,-2.141342c0.611282,-0.469894 1.724899,0.155884 2.558838,-0.283997c0.61586,-0.32486 1.061127,-1.053635 1.857162,-1.5c0.799469,-0.448288 1.75975,-0.589096 2.214661,-1.301331c0.477524,-0.74765 0.838943,-1.151184 1.585342,-1.551331c0.843826,-0.452377 1.810104,-0.70195 2.263992,-1.258011c0.614502,-0.752838 0.827667,-1.598251 1.520004,-2.105331c0.709244,-0.51947 1.62056,-0.272873 2.558823,-0.283997c0.878204,-0.010422 1.745728,-0.426163 2.382507,-1.02533c0.584625,-0.550095 1.604492,-0.913895 1.921997,-1.680008c0.283112,-0.683075 0.854004,-1.29332 1.752686,-1.294662c0.863983,-0.001282 2.015991,0.111969 2.289307,-0.574661c0.342438,-0.860229 0.528687,-1.584259 1.094696,-2.141342c0.671265,-0.66069 1.361633,-1.144882 2.065308,-1.273331c0.854828,-0.156036 0.570221,-1.196899 1.072021,-1.889328c0.508759,-0.702057 1.138916,-1.169037 1.803986,-1.695999c0.626221,-0.496201 1.512451,-0.450623 1.995514,-0.925339c0.595886,-0.585556 1.260162,-1.17334 1.857819,-1.721329c0.638123,-0.585091 1.469177,-0.562836 2.064178,-1.13134c0.52951,-0.50592 1.217743,-0.449165 2.057159,-0.813995c0.68457,-0.297531 1.211853,-1.274612 2.100006,-1.712006c0.654419,-0.322289 1.510071,-0.770493 2.221313,-1.221161c0.656738,-0.416145 1.696838,-0.659081 2.477356,-0.984169c0.779144,-0.324516 1.514465,-1.03096 2.222168,-1.416c0.573975,-0.312279 1.591553,-0.76992 2.321991,-1.199997c0.792816,-0.466797 1.531342,-1.049416 2.314331,-1.251839c0.739563,-0.191193 1.753418,-0.603767 2.342834,-1.069c0.611298,-0.482513 1.385345,-1.119431 2.200012,-1.568497c0.983124,-0.541931 1.571075,-0.844215 2.314667,-1.125336c0.965118,-0.364868 1.809296,-0.724785 2.485321,-1.285332c0.518036,-0.429543 1.572388,-0.898415 2.200012,-1.568001c0.482574,-0.514839 1.141724,-1.235313 1.899994,-1.653336c0.75061,-0.413811 1.622559,-0.625496 2.289337,-1.214661c0.694,-0.613205 0.069672,-1.975357 0.652313,-2.543167c0.587219,-0.57225 1.897156,0.324409 2.59668,-0.078003c0.813873,-0.468178 1.160095,-1.245934 1.361664,-2.109497c0.182159,-0.780373 0.806915,-1.503746 1.520844,-1.8125c0.797394,-0.344833 1.986359,0.138771 2.443146,-0.446167c0.564301,-0.722595 1.157135,-1.18824 1.750671,-1.658669c0.738495,-0.585327 1.570313,-0.3713 2.264496,-0.936836c0.646484,-0.526672 1.125244,-0.89048 2.020844,-0.979164c0.845703,-0.08374 1.311157,-0.76358 1.947327,-1.352669c0.575592,-0.53299 1.054749,-1.256897 1.757172,-1.699997c0.771912,-0.486923 1.593262,-0.591316 2.379517,-1.032669c0.72995,-0.409744 0.717194,-1.543716 1.35199,-2.304001c0.528564,-0.633034 1.330627,-1.023087 1.916656,-1.553497c0.543854,-0.492256 0.837097,-1.184723 1.448669,-1.85717c0.570282,-0.627037 1.20343,-1.41552 1.841492,-1.842827c0.771576,-0.516724 1.344574,-0.723282 1.857178,-1.35717c0.535217,-0.661842 0.929169,-1.369629 1.721497,-1.878502c0.746094,-0.479172 1.225189,-0.630341 1.863831,-1.121498c0.725037,-0.55761 1.760468,-0.045532 2.435516,-0.5c0.742035,-0.499573 1.183594,-0.974274 1.483643,-1.852669c0.241882,-0.708115 1.384857,-0.657997 1.995514,-1.147331c0.610657,-0.489334 1.760834,-0.632332 2,-0.064003c0.369781,0.878769 0.562012,1.240128 1.425323,1.574669c0.703796,0.272728 1.029297,1.221016 1.658691,1.705338c0.735474,0.565933 1.039215,1.144867 1.777313,1.683998c0.620453,0.453201 1.511475,0.990807 2.138672,1.599998c0.572144,0.555733 1.427277,0.847031 2.200012,1.285332c0.688324,0.390427 1.26947,1.220436 1.747314,2.01017c0.397369,0.656723 0.92337,1.255768 1.33667,1.98983c0.442261,0.785461 0.832855,1.49543 1.29068,2.314667c0.431671,0.772469 1.00589,1.092606 1.814667,1.410667c0.725739,0.285408 0.657898,1.348045 1.185333,2.014664c0.51532,0.651299 0.869537,1.53447 1.59198,1.97467c0.729645,0.44458 0.674011,1.29789 1.186005,1.947334c0.484528,0.614609 0.487335,1.545998 0.931335,2.054001c0.531097,0.607666 0.637207,1.35347 1.141327,1.973335c0.500214,0.615082 0.971039,1.47361 1.6745,1.903999c0.776825,0.475281 0.900177,1.321327 0.900177,2.221329c0,0.900002 -0.117615,1.844948 0.520844,2.400002c0.675079,0.586906 1.228607,0.973709 1.483643,1.795502c0.236816,0.763084 1.120209,1.160706 1.642853,1.699997c0.506409,0.522537 0.809052,1.386238 1.268646,2.203171c0.395325,0.70266 0.960266,1.339767 1.604858,1.801331c0.693573,0.496628 1.202515,1.165482 1.645813,2c0.336731,0.633911 1.258484,1.056664 1.858673,1.574669c0.628723,0.542641 1.427124,0.962936 1.921997,1.720833c0.454071,0.695404 1.136749,1.119026 1.700012,1.757164c0.525543,0.595406 1.119629,1.255356 1.705322,1.894669c0.534332,0.58326 0.990173,1.365776 1.448669,1.852669c0.657806,0.698563 1.586609,1.068268 2.162659,1.625336c0.501404,0.484863 1.018005,1.010162 1.036011,1.974655c0.016724,0.895355 -0.16394,1.817123 0.166656,2.600006c0.330322,0.782257 0.718414,1.561646 1.186005,2.295502c0.520416,0.816788 1.129974,1.312027 1.562012,1.989838c0.493103,0.773636 0.520844,1.571716 1.049316,2.139999c0.474976,0.510773 1.096252,1.015533 1.610687,1.599991c0.548706,0.623428 0.940887,1.479813 1.525146,2.074509c0.609375,0.620239 0.900177,1.42099 0.900177,2.300156c0,0.900009 -0.468292,2.083527 0.166656,2.600006c0.687347,0.559097 1.603027,0.305542 2.186005,0.947327c0.526245,0.579315 0.619812,1.371811 1.147339,2.052673c0.46225,0.596649 0.5,1.520828 0.5,2.399994c0,0.900009 0.453857,1.980118 -0.057159,2.600006c-0.541168,0.656494 -1.298584,0.971329 -2.142853,1c-0.899292,0.030548 -1.597473,0.303314 -1.799988,1.166672c-0.182831,0.779419 -1.300659,0.670502 -1.947327,1.185989c-0.606812,0.483719 -1.535034,0.449585 -2.054016,0.931335c-0.55014,0.510666 -1.05246,1.162613 -1.573334,1.741333c-0.574097,0.637863 -1.484863,0.651123 -2.141327,1.059998c-0.798279,0.497208 -1.654297,0.509964 -2.198669,1.198669c-0.549896,0.695709 -0.391846,1.503448 -1.283997,1.717331c-0.748566,0.179459 -0.487244,1.494003 -1.153992,1.941513c-0.722839,0.485153 -1.583771,0.419281 -2.147339,1.057159c-0.515503,0.583481 -1.066956,1.102493 -1.557159,1.647339c-0.624634,0.69426 -1.158081,1.291763 -2.042664,1.352661c-0.908722,0.062561 -1.706879,0.172272 -1.900177,1.02533c-0.194824,0.859818 -0.957703,1.209656 -1.700012,1.622009c-0.824402,0.457962 -1.532104,0.742462 -2.133331,1.352661c-0.4953,0.50267 -1.027496,0.981995 -2,1c-0.879852,0.016281 -1.7052,0.03476 -2.1875,0.5c-0.551575,0.532059 -1.383514,0.669968 -1.977814,1.216003c-0.539703,0.49588 -1.163757,0.823013 -1.965332,1.283997c-0.648743,0.373108 -1.500061,0.843842 -2.236023,1.285339c-0.678589,0.407089 -1.260132,1.213379 -1.966644,1.881332c-0.52417,0.49556 -1.433289,0.827988 -2.3125,0.833328c-0.946136,0.005737 -1.670288,0.321091 -2.322174,0.716003c-0.842194,0.510193 -1.415924,1.011505 -2.198669,1.450668c-0.700012,0.392746 -1.180511,1.291245 -2,1.666656c-0.742676,0.340225 -1.829529,-0.256485 -2.642822,0.223831c-0.659729,0.389618 -0.83847,1.495209 -1.657166,1.890167c-0.865479,0.417542 -1.66394,0.497559 -2.414673,1.136673c-0.666321,0.567276 -1.323578,0.742447 -2.085327,1.001328c-0.887939,0.301758 -1.699951,0.796173 -2.189331,1.489334c-0.499817,0.707916 -0.868866,1.273865 -1.663361,1.72084c-0.836395,0.470566 -1.873413,0.529053 -2.569,0.925995c-0.629242,0.359085 -1.409241,1.121429 -2.125641,1.421341c-0.868561,0.363617 -1.462402,0.883545 -1.938019,1.555832c-0.552002,0.780258 -1.514832,0.782684 -2.414673,0.801331c-0.900513,0.018661 -1.645721,0.52742 -2.5,0.916c-0.763092,0.347122 -1.247772,0.90538 -1.825317,1.647995c-0.45755,0.588303 -1.285004,1.054138 -2.174683,1.350677c-0.857635,0.285873 -1.801117,0.040726 -2.67865,0.085327c-0.840607,0.042725 -1.341858,0.885773 -2.221344,1.000168c-0.699249,0.090958 -1.39801,0.615738 -1.90448,1.352493c-0.45993,0.669037 -1.379456,0.664825 -1.995514,1.147339c-0.641785,0.50267 -1.636414,0.192352 -2.425323,0.510666c-0.763641,0.308121 -1.026337,1.319336 -1.741333,1.822662c-0.694946,0.489197 -1.77243,0.381378 -1.833344,1.219345c-0.066071,0.908936 -0.792114,1.048615 -1.5,1.447327c-0.878357,0.49472 -1.537567,0.95903 -2.074677,1.489334c-0.482544,0.47644 -0.813202,1.321884 -1.59198,1.843994c-0.705902,0.473236 -1.512756,0.450974 -2.11734,1.082672c-0.546509,0.571014 -1.063965,0.922653 -1.81601,1.305496c-0.686432,0.349426 -1.25705,1.211349 -2.06665,1.778503c-0.686676,0.481033 -0.741669,1.22052 -1.258667,1.93866c-0.477936,0.663879 -0.910187,1.630432 -1.674683,1.939835c-0.841827,0.340698 -1.775238,0.176834 -2.420837,0.621506c-0.738068,0.508362 -1.748413,0.311203 -2.578979,0.721329c-0.707581,0.34938 -1.368195,0.91571 -1.95285,1.42601c-0.652954,0.569931 -1.519012,0.990967 -2.33667,1.316666c-0.809204,0.322327 -1.380554,0.887817 -2.310669,1.031494c-0.889465,0.13739 -1.717346,0.093979 -2.325317,0.579163c-0.624512,0.498383 -1.594452,0.423111 -2.374664,0.850677c-0.821411,0.450134 -1.738403,0.388596 -2.600006,0.741333c-0.671478,0.274902 -1.499817,0.822906 -2.389343,0.833328c-0.895935,0.010483 -1.859131,-0.153519 -2.610657,0.166672c-0.781189,0.33284 -1.527405,0.857941 -2.020844,1.333328c-0.55191,0.531708 -1.347595,0.644089 -2.03183,1.147339c-0.666199,0.48999 -1.607391,0.32196 -2.383331,0.778c-0.781219,0.459137 -1.616669,0.574661 -2.563995,0.574661c-0.833344,0 -1.716003,0 -2.610657,0c-0.889343,0 -1.778687,-0.000656 -2.674683,0c-0.91333,0.000671 -1.373566,0.909897 -2.139984,0.953339c-0.745514,0.042267 0.286316,-0.818924 0.90448,-1.49501c0.591034,-0.646439 0.44516,-1.656052 0.946167,-2.396988c0.476135,-0.704178 1.032959,-0.898849 1.869354,-1.06134c0.748108,-0.14534 0.80835,-1.238647 1.506653,-1.714661c0.749298,-0.510788 0.775848,-1.330368 1.283997,-2.001343c0.464752,-0.613663 1.614685,-0.283997 2.514679,-0.283997c0.87915,0 1.447357,0.392853 1.97467,1.02533c0.54953,0.659149 1.204773,1.096191 2.02533,1.549332c0.770447,0.425491 1.716797,0.629684 2.44165,0.925339c0.939514,0.383209 1.736481,0.481339 2.625,0.5c0.902496,0.018951 1.728058,-0.049667 2.576172,0.352661c0.810303,0.384384 1.534271,0.770782 2.357178,1.222c0.780121,0.42775 1.699982,0.425339 2.598663,0.425339c0.854004,0 2.416901,0.124603 2.149506,0.942841c-0.05011,0.153336 -0.875824,0.198563 -1.405334,0.704498c-0.595001,0.568497 -1.578827,0.352661 -2.591003,0.352661c-0.782501,0 -1.709015,0 -2.651825,0c-0.900024,0 -1.803497,-0.078674 -2.647339,0c-0.897675,0.083694 -1.267914,0.939102 -2.152679,1c-0.897858,0.061798 -1.325104,0.414505 -1.957153,0.995499c-0.705475,0.648483 -1.547028,0.672226 -2.425507,0.920502c-0.788116,0.222748 -1.441895,0.849869 -2.164001,1.073334c-0.961243,0.29747 -1.810791,-0.01503 -2.596161,0.716003c-0.543945,0.506302 -1.200348,1.19574 -2.090515,1.627991c-0.690948,0.33551 -1.384583,0.87616 -2.333313,1.333344c-0.653076,0.314713 -1.671539,0.51915 -2.333344,0.854156c-0.857666,0.434158 -1.466248,0.992752 -2.201324,1.679169c-0.546448,0.510269 -1.259079,1.047256 -1.973343,1.363998c-1.038818,0.460678 -1.809906,0.781769 -2.367004,1.456833c-0.417648,0.506088 -1.217361,1.112427 -1.958328,1.458344c-0.723694,0.33786 -1.628555,0.914871 -2.5,1.354156c-0.719803,0.362839 -1.532135,0.687241 -2.138672,1.352005c-0.677994,0.743073 -0.893646,1.593933 -1.575668,2.114655c-0.637131,0.48645 -1.73085,0.829071 -2.243988,1.220856c-0.898865,0.686279 -0.859436,1.533997 -1.263336,2.457825c-0.309982,0.709015 -1.099655,1.342651 -1.603668,1.84668c-0.690659,0.690674 -1.413315,1.421692 -1.973328,1.973328c-0.696182,0.68576 -1.405975,1.076385 -2.301346,1.201477c-0.906464,0.126648 -1.566452,0.636597 -1.91066,1.435852c-0.367538,0.853424 -0.465973,1.823364 -1.156006,2.397339c-0.653351,0.543457 -1.633331,0.166656 -2.666656,0.166656c-0.777344,0 -1.666672,-0.002258 -2.566666,0c-0.895523,0.002258 -1.589584,0.479492 -1.600006,-0.020844c-0.017715,-0.850983 0,-1.581818 0,-2.57016c0,-0.838318 -0.545059,-1.66217 -0.878494,-2.509003c-0.332718,-0.845032 -0.111511,-1.700043 -0.121506,-2.542816c-0.010422,-0.878204 -0.689514,-1.590424 -0.995499,-2.409851c-0.331406,-0.887482 -0.466644,-1.320068 -0.993835,-1.983337c-0.476257,-0.599182 -0.010666,-1.664001 -0.010666,-2.606812c0,-0.931839 0,-1.793182 0,-2.657181c0,-0.899994 0,-1.799835 0,-2.735992c0,-0.765335 0.0168,-1.664154 0,-2.564011c-0.018005,-0.964493 -0.816727,-1.321045 -1,-1.967987c-0.235489,-0.831299 0.156235,-1.860977 -0.283997,-2.630676c-0.448441,-0.784042 -0.762527,-1.511841 -1.216003,-2.301331c-0.405243,-0.705505 -0.5,-1.599838 -0.5,-2.52533c0,-0.776001 0,-1.674667 0,-2.574677c0,-0.963989 0.127319,-1.8461 -0.004501,-2.699997c-0.143768,-0.931366 -0.383041,-1.67775 -0.994171,-2.414658c-0.468262,-0.564636 -0.635971,-1.290497 -1.086655,-2.001343c-0.467606,-0.737534 -1.262375,-1.115967 -1.862,-1.636658c-0.630814,-0.54776 -1.579391,-0.498718 -2.054001,-0.931335c-0.598953,-0.545959 -1.11055,-1.195389 -1.646011,-1.768677c-0.639999,-0.685211 -1.043854,-1.335434 -1.705322,-1.890167c-0.54007,-0.452927 -1.132385,-0.883163 -1.647339,-1.577988c-0.510361,-0.688629 -0.92778,-1.562119 -1.563995,-2.043167c-0.720566,-0.544815 -1.144058,-0.909073 -1.440506,-1.788666c-0.241776,-0.717377 -1.253906,-1.067047 -1.995499,-1.480667c-0.838852,-0.46788 -1.436371,-0.850342 -2.000168,-1.388c-0.584045,-0.556976 -1.037399,-1.237701 -1.574493,-1.768005c-0.482544,-0.47644 -1.070938,-0.974289 -1.814667,-1.436005c-0.821304,-0.509872 -1.610672,-0.574661 -2.410675,-0.574661c-0.899994,0 -1.954285,0.056824 -2.202667,-0.567993c-0.32515,-0.817932 -0.856659,-1.395981 -1.830658,-1.432007c-0.861572,-0.031876 -1.557663,-0.184891 -2.165344,-0.716003c-0.508011,-0.443985 -1.514359,-0.141678 -2.401321,-0.294662c-0.831863,-0.143478 -1.512604,-0.946609 -2.31601,-0.989334c-0.893402,-0.047516 -1.713669,-0.173615 -2.33667,-0.647339c-0.714844,-0.543564 -1.04718,-1.041672 -1.748657,-1.436661c-0.816772,-0.4599 -1.606735,-0.730301 -2.482666,-0.916c-0.753525,-0.159744 -0.889008,-0.897446 -1.716003,-1c-0.899216,-0.111511 -1.283997,-0.916 -1.97467,-1.425339l-0.52533,-0.574661l-0.495499,-0.647339l-0.615173,-0.352661" id="svg_17" stroke-linecap="null" stroke-linejoin="null" stroke-dasharray="null" stroke-width="5" stroke="#000000" fill="#ffff00"/>
  <line id="svg_18" y2="213.800018" x2="196.799988" y1="94.800018" x1="364.799988" stroke-linecap="null" stroke-linejoin="null" stroke-dasharray="null" stroke-width="5" stroke="#000000" fill="none"/>
  <line transform="rotate(-2.095252513885498 303.79998779296926,184.80001831054622) " id="svg_19" y2="239.800018" x2="219.799988" y1="129.800018" x1="387.799988" stroke-linecap="null" stroke-linejoin="null" stroke-dasharray="null" stroke-width="5" stroke="#000000" fill="none"/>
  <path d="m346.799988,78.800018c1.563995,-0.574669 1.759796,-1.460007 2.001343,-2.283997c0.22702,-0.77446 1.339508,-0.654884 1.973328,-1.141335c0.653259,-0.501366 1.750122,-0.466057 2.014648,-1.185333c0.299805,-0.815186 -0.158447,-1.916756 0.296021,-2.588005c0.535828,-0.791466 1.553253,-0.591217 2.414673,-0.858498c0.865936,-0.268684 1.152191,-1.308174 1.652649,-1.890167c0.554962,-0.64537 1.036224,-1.26545 1.731354,-1.768669c0.736176,-0.532921 1.515717,-0.421524 1.973145,-0.931328c0.549591,-0.612518 1.644348,-0.407158 2.442841,-0.852669c0.796997,-0.444672 1.309723,-1.026382 1.785339,-1.698666c0.552002,-0.78027 1.514648,-0.800667 2.429321,-0.801334c0.860016,-0.000629 2.010132,0.108612 2.274658,-0.610668c0.299805,-0.815186 0.020996,-1.814991 0.510681,-2.389332c0.552246,-0.647701 1.453888,-0.627094 2.147339,-1.057167c0.733246,-0.454754 1.014374,-1.42197 1.742004,-1.9175c0.665802,-0.453419 0.999908,-1.237579 1.694672,-1.741333c0.7323,-0.530994 1.070282,-1.20026 1.915985,-1.284c0.796082,-0.078827 1.313599,0.369698 2.001343,0.914665c0.655518,0.519432 1.202271,0.56237 1.832001,1.252003c0.546783,0.59877 0.903839,1.444912 1.602661,1.797333c0.851837,0.429588 1.909088,-0.049011 2.538666,0.461334c0.592987,0.480694 1.69397,0.409508 2.004486,1.095497c0.36264,0.801163 0.020844,1.77467 0.020844,2.7005c0,0.945335 0.238617,1.734352 0.647339,2.478664c0.407623,0.742325 0.35202,1.725334 0.352661,2.585335c0.000671,0.913338 0.385071,1.622559 0.97467,2.139999c0.637756,0.5597 1.082947,1.384872 1.941315,1.574669c0.785583,0.173698 1.04718,0.801987 1.084015,1.833336c0.029114,0.815483 0.577698,1.552254 1.221344,2.045166c0.704315,0.53936 1.228607,0.943512 1.803986,1.685501c0.484741,0.625076 0.592987,1.364372 0.97467,2.083328c0.325317,0.61277 1.282043,0.840622 1.833344,1.519333c0.480682,0.591766 0.3461,1.818237 1,2.5c0.522552,0.544807 1.086182,1.008804 1.602661,1.733337c0.559967,0.785538 1.066284,1.38134 1.563995,2.079163c0.489899,0.686882 1.351532,1.196556 1.642822,1.815506c0.448639,0.953239 0.668213,1.749886 1.073181,2.505333c0.405212,0.755959 0.722839,1.597321 1.384003,2.300163c0.502167,0.533813 1.157257,1.358513 1.463989,2.110504c0.392029,0.961136 0.302765,1.805695 0.602661,2.622665c0.312897,0.852348 0.930695,1.489571 1.333344,2.166664c0.496735,0.835289 1.021759,1.458694 1.698669,2.199997c0.53363,0.584381 0.610687,1.528061 0.837341,2.400002c0.225006,0.865662 0.995667,1.586555 1.664001,2.042831c0.738251,0.504013 1.40329,1.019783 1.710663,1.643837c0.350067,0.710747 1.040131,1.789711 1.610168,2.171669c0.929596,0.622887 1.62619,0.770355 2.321991,1.298828c0.845062,0.64183 1.073547,1.317261 1.823822,2.076172c0.588867,0.595627 1.396393,0.887115 1.848022,1.802666c0.393616,0.797935 0.683044,1.502846 0.899994,2.477333c0.204956,0.920662 -0.082825,1.923103 0.170654,2.686668c0.256348,0.772163 0.900085,1.580261 1.414673,2.199997c0.499908,0.602036 0.447021,1.53479 0.852661,2.300003c0.448364,0.845795 1.106995,1.384857 1.525848,2.14283c0.363098,0.657074 0.109802,1.671913 0.12149,2.657005c0.010437,0.879517 0.812805,1.071198 1,1.900162c0.199585,0.883865 0.957275,1.282364 1,2.198669c0.041229,0.884369 -0.037201,1.8022 0,2.601334c0.042725,0.917633 1.48468,1.35173 1,2.033325c-0.419556,0.589981 -1.722748,0.020676 -2.389343,0.602676c-0.698181,0.609573 -0.947449,1.415253 -1.585327,1.989334c-0.578735,0.520859 -1.089233,1.135666 -1.600006,1.610657c-0.568268,0.528473 -1.258667,1.130676 -1.425323,1.964005c-0.166656,0.833328 -1.238312,0.725891 -1.878662,1.221329c-0.635742,0.491882 -1.601013,0.451111 -2.064178,1.131332c-0.48996,0.719589 -0.401306,1.604813 -1.057159,2.147339c-0.602966,0.498779 -1.364807,0.649048 -2.052673,1.147339c-0.693726,0.502548 -1.558044,0.341217 -2.547333,0.352661c-0.900177,0.010422 -1.565125,0.540146 -2.374664,0.964005c-0.781616,0.409241 -0.986847,1.011566 -1.02533,1.837326c-0.042725,0.916306 -0.801331,1.197342 -1.714661,1.198669l-0.932678,0.057159l-0.352661,0.776169l-0.716003,0.251999" id="svg_20" stroke-linecap="null" stroke-linejoin="null" stroke-dasharray="null" stroke-width="5" stroke="#000000" fill="#00ff00"/>
  <path d="m348.799988,78.800018c0.170654,0.716003 1.299286,0.603409 1.885681,1.35717c0.522247,0.671326 -0.280151,2.024391 0.398315,2.557495c0.697266,0.547882 1.463745,0.399918 1.716156,1.306671c0.216431,0.777496 1.014801,1.166237 1.574524,1.803993c0.517456,0.589592 1.06424,1.094093 1.510651,1.690674c0.563446,0.752998 0.634216,1.470222 1.136017,2.162666c0.508759,0.702057 1.252441,1.029732 1.789337,1.546661c0.543732,0.523499 0.982666,1.202362 1.414642,1.97467c0.45755,0.818077 0.959747,1.507889 1.549347,2.02533c0.637756,0.5597 1.058044,1.29023 1.450653,1.97467c0.466064,0.812485 0.410736,1.817101 0.741333,2.599998c0.330322,0.782265 0.567719,1.516975 0.833344,2.425331c0.190308,0.650833 0.672455,1.071465 1.010681,1.964005c0.277283,0.731743 0.865448,1.318291 1.414642,2c0.602539,0.747948 1.531891,0.893021 1.574677,1.810661c0.041901,0.898857 0.305542,1.569702 0.947327,2.152672c0.579315,0.526237 1.445801,0.445244 2.251343,0.932663c0.624329,0.377769 1.068085,1.214424 1.634674,1.881332c0.581116,0.683998 0.821899,1.627007 1.645813,1.8125c0.923584,0.207932 1.505676,0.541557 1.520844,1.420837c0.017059,0.989243 0.446594,1.653809 1.02533,2.174667c0.637878,0.574081 1.424408,0.970619 1.889343,1.710663c0.488068,0.776855 0.519836,1.572685 1.049316,2.139999c0.473358,0.507179 1.340851,0.43895 1.983337,0.927338c0.6651,0.505569 1.675842,0.432289 2.03183,1.147331c0.417267,0.838097 -0.104187,1.897331 0.446167,2.463997c0.485931,0.500351 1.291321,0.913185 1.563995,1.646675c0.302826,0.814606 0.744629,1.256073 1.436005,1.814667c0.680695,0.549988 0.252899,1.712555 0.741333,2.40799c0.502319,0.715195 0.528748,1.450424 1.11734,2.081345c0.531433,0.569641 1.101074,0.99321 1.690674,1.510666c0.637756,0.559708 1.014984,1.290726 1.02533,2.149323c0.011139,0.925507 0.518036,1.584229 1.084015,2.141342c0.671112,0.660614 1.231506,1.159805 1.890656,1.709335c0.632507,0.527298 1.098633,0.946747 1.600006,1.599991c0.48645,0.63382 0.0289,1.636566 0.446167,2.47467c0.355988,0.715042 1.690826,0.396347 1.968475,1.110672c0.345795,0.889618 0.828766,1.383621 1.009338,2.190659c0.199432,0.891296 0.668091,0.816589 1.501343,1.219498c0.689972,0.333618 0.618622,1.454803 1.147339,2.031845c0.633423,0.691299 1.231171,1.168655 1.519318,1.947327l0.828857,0.057159l0.22583,0.821503l0.725983,0.473999" id="svg_21" stroke-linecap="null" stroke-linejoin="null" stroke-dasharray="null" stroke-width="5" stroke="#000000" fill="none"/>
  <line id="svg_22" y2="143.800018" x2="420.799988" y1="66.800018" x1="365.799988" stroke-linecap="null" stroke-linejoin="null" stroke-dasharray="null" stroke-width="5" stroke="#000000" fill="none"/>
  <path d="m377.799988,52.800018c1.700012,0 2.636444,0.026711 3.484009,-0.001335c0.864655,-0.02861 1.775299,-0.336895 2.515991,-0.998665c0.614075,-0.548653 1.440613,-0.734802 2.295502,-1.004501c0.767365,-0.242088 0.867584,-1.367188 1.704498,-1.828831c0.690247,-0.380745 1.674683,-0.48291 2.347321,-0.871166c0.92926,-0.536388 1.449463,-1.015568 2.409851,-1.348167c0.893768,-0.309532 1.646667,-0.573841 2.356171,-1.147335c0.659912,-0.533401 0.991028,-1.341446 1.76532,-1.800167c0.700134,-0.414787 1.419952,-0.971233 2.320007,-0.999832c0.884888,-0.028118 1.707947,-0.034595 2.45401,-0.357166c0.891144,-0.385296 1.583344,-0.950264 2.347321,-1.642834c0.557587,-0.50547 1.49649,-1.009911 2.050659,-1.200001c0.922974,-0.316605 1.661652,-0.28698 2.609344,-0.998665c0.75946,-0.570313 1.557098,-0.637405 2.339996,-0.968002c0.782257,-0.330326 1.480194,-0.832352 2.06134,-1.444c0.649658,-0.683739 1.257019,-1.168259 2.302673,-1.353333c0.822632,-0.145603 1.724457,0.05426 2.635986,-0.035999c0.845703,-0.08374 1.282349,-0.957287 2.198669,-1c0.853088,-0.039764 1.801331,0 2.601318,0c0.900024,0 1.764008,0.002472 2.700012,0c0.852661,-0.002251 1.442413,-0.575508 2.110657,-1.025333c0.726196,-0.488853 1.677979,-0.760101 2.305328,-1.258667c0.620758,-0.49332 1.384003,-0.716 2.282684,-0.716c0.85849,0 1.773071,-0.211693 2.401337,-0.574667c0.845642,-0.488562 1.562256,-0.832232 2.115997,-1.424c0.500763,-0.53516 0.988495,-0.999083 1.884003,-1.001333c0.899994,-0.00226 1.993042,-0.216419 2.68399,0.285334c0.72937,0.529654 0.675964,1.476696 1.236847,2.214666c0.590179,0.776514 1.26886,1.12285 1.8685,1.910667c0.531006,0.697643 0.457947,1.636967 0.832153,2.568001c0.281464,0.700287 0.967712,1.5117 1.37851,2.195999c0.487305,0.811756 1.044708,1.420654 1.499817,2.146832c0.422485,0.674133 0.784668,1.671631 0.864166,2.457169c0.105988,1.04731 0.482361,1.644871 0.987854,2.521332c0.398285,0.690582 1.046295,1.238705 2.026489,1.578667c0.721039,0.250069 1.021667,1.068668 1.021667,1.922668c0,0.898666 -0.002258,1.798668 0,2.677834c0.002258,0.878006 0.302979,1.709286 0.704498,2.278c0.618805,0.876514 0.946564,1.587406 1.242828,2.485664c0.28186,0.854614 0.718872,1.578247 1.078003,2.357166c0.418335,0.907333 0.81073,1.617107 1.141327,2.400002c0.330322,0.782265 0.456848,1.583279 0.854187,2.479168c0.315369,0.711037 0.966553,1.225407 0.979156,2.120831c0.012665,0.900154 0.535278,1.606316 0.87851,2.500168c0.284729,0.741516 0.030182,1.74398 0.206818,2.415833c0.266663,1.014168 0.875275,1.787506 0.914673,2.650665c0.037994,0.832733 0.248383,1.796974 0.574677,2.422668c0.464722,0.891197 0.805481,1.698288 1.226654,2.295998c0.523529,0.742989 0.924377,1.539894 1.365326,2.448006c0.341949,0.704216 0.718048,1.659866 0.797333,2.456001c0.103516,1.039482 0.031036,1.820992 0.461334,2.610664c0.449066,0.824066 0.698456,1.634399 1.222015,2.242828c0.654785,0.760933 1.291779,1.45105 1.352661,2.35717c0.053619,0.798203 -0.00592,1.70002 0,2.599998c0.005341,0.810722 0.228333,1.718506 0.5,2.400002c0.38855,0.974724 0.497742,1.752663 0.5,2.652664c0.002167,0.863335 0,1.900673 0,2.783333c0,0.864006 -0.082123,1.767769 0.000153,2.664001c0.083679,0.911438 0.653442,1.460411 1.295349,2.200005c0.578613,0.666687 0.816284,1.482857 1.279175,2.264c0.457886,0.772705 0.821869,1.439087 1.414642,2.010666c0.488159,0.470703 1.337006,0.81736 1.726685,1.509331c0.352234,0.625465 -0.80661,1.233513 -1.38266,1.457664c-0.728546,0.283493 -2.167114,0.790482 -2.740662,1.001503c-0.618469,0.227554 -1.274994,0.473152 -1.962006,0.739502c-0.715027,0.277214 -1.449707,0.57058 -2.196014,0.883499c-0.757721,0.317696 -2.270325,0.995689 -3.012665,1.354836c-0.734985,0.355583 -1.451996,0.721352 -2.153992,1.082993c-0.685333,0.353058 -1.345947,0.705322 -1.992004,1.029007c-1.766968,0.885284 -2.306091,1.115997 -3.299988,1.5c-0.455017,0.175797 -1.315002,0.452103 -2.08667,0.748329c-1.078094,0.413857 -1.735352,0.758148 -2.64267,1.293335c-0.56488,0.333191 -1.56958,0.923431 -2.399994,1.414665c-0.835144,0.494026 -1.48996,0.883278 -2.236023,1.385338c-0.668304,0.44973 -1.401031,1.028076 -1.610657,1.858665c-0.199677,0.791191 -0.879059,1.141541 -1.704498,1.166664c-0.939636,0.028595 -1.233124,0.783493 -1.795502,1.479172c-0.567139,0.701569 -1.394592,0.903046 -2.333344,1.520828c-0.671753,0.442078 -1.386932,0.851898 -2.333313,1.166672c-0.675262,0.224594 -1.461639,0.502655 -2.186676,1.233322c-0.688904,0.69426 -0.813324,1.600006 -1.294006,2.242844l-0.852661,0.377991l-0.52533,0.553833l-0.679169,0.420837" id="svg_24" stroke-linecap="null" stroke-linejoin="null" stroke-dasharray="null" stroke-width="5" stroke="#000000" fill="#ff56aa"/>
  <path d="m380.799988,54.800018c0.057159,1.647335 0.85611,2.050957 1,2.974667c0.139099,0.893066 0.829468,0.692406 1.666656,1.192001c0.775055,0.462517 1.019135,1.267708 1.554688,1.8335c0.553375,0.584618 0.327332,1.463165 0.945313,1.999832c0.67038,0.582157 1.55838,0.3946 2.3125,1c0.645721,0.518372 0.671875,1.380638 1.168182,2.052666c0.508911,0.689079 -0.040924,1.659515 0.388672,2.511337c0.352417,0.698792 0.481567,1.43 1.049316,2.150665c0.543518,0.689919 1.770844,0.336555 1.914673,1.232666c0.135315,0.843208 -0.39505,1.867012 0.036011,2.616669c0.402283,0.699623 1.621063,0.427094 1.962646,1.152c0.382996,0.812798 0.536072,1.699394 1.285339,2.285332c0.588165,0.459961 0.578339,1.334999 0.937347,2.098663c0.364685,0.775696 0.384857,1.584038 0.778656,2.464005c0.276642,0.618195 1.095306,0.973213 1.574677,1.507996c0.491577,0.548401 0.012238,1.531258 0.425323,2.481339c0.272949,0.627739 0.679657,1.156441 1,1.946663c0.27124,0.669106 1.138367,0.949356 1.716003,1.584c0.588593,0.64666 1.574036,0.481133 2.162506,1.137337c0.560913,0.625481 0.628693,1.38768 1.064331,2.135834c0.424469,0.728951 0.600464,1.355194 1.058502,1.928162c0.526917,0.659126 0.480713,1.651741 1.051331,2.357498c0.591095,0.731071 1.043976,1.264946 1.522003,1.967834c0.49765,0.731712 0.800995,1.533577 1.258667,2.389336c0.423279,0.791443 1.068726,1.095062 1.556,1.861336c0.573425,0.901726 0.454529,1.741737 0.610657,2.617828c0.149811,0.840675 1.1987,1.052841 1.833344,1.6875c0.634644,0.634651 0.590698,1.52375 1.166656,2.3125c0.467529,0.640282 0.997742,1.225327 1,2.163666c0.002106,0.878006 -0.11438,1.828117 0.352661,2.361671c0.536926,0.613411 1.406769,0.936691 1.642853,1.699997c0.264862,0.856392 0.622528,1.60585 0.919159,2.495499c0.286011,0.857796 0.146576,1.694153 0.437988,2.452667c0.335907,0.874367 0.544281,1.716621 0.651825,2.651833c0.10022,0.871544 0.394562,1.731895 0.911499,2.526169c0.431519,0.663048 0.873962,1.422478 1.305359,2.269341c0.389069,0.763748 1.034851,1.264465 1.612,1.899994c0.46048,0.50705 0.714294,1.44606 1.451996,1.914673c0.691284,0.439117 1.630646,0.369324 2.139984,1.049332l0.858673,0.037323" id="svg_25" stroke-linecap="null" stroke-linejoin="null" stroke-dasharray="null" stroke-width="5" stroke="#000000" fill="#ff0000"/>
  <path d="m156.799988,261.800018c-2.009827,0 -2.785339,0 -3.833328,0c-0.941345,0 -1.619354,0.006042 -2.588501,-0.000153c-0.835556,-0.005341 -1.799515,-0.033905 -2.911499,-0.166504c-0.838257,-0.099976 -1.27626,-0.187561 -2.1875,-0.333344c-0.930756,-0.148926 -1.393219,-0.246338 -2.757675,-0.37851c-0.862686,-0.083557 -1.700562,-0.1073 -2.516998,-0.117004c-1.204422,-0.014313 -2.004501,-0.004486 -2.804504,-0.004486c-0.799988,0 -1.599991,0 -2.799667,0c-0.791321,0 -1.558655,0 -2.285995,0c-1.2715,0 -2.052994,-0.001251 -2.996994,0c-1,0.001343 -1.830841,-0.088348 -2.548004,0.170654c-1.032013,0.372711 -1.414978,1.061768 -1.647835,2.250671c-0.155411,0.793488 -0.119247,1.626007 -0.121498,2.657349c-0.001518,0.695984 0,1.605316 0,2.606659c0,0.83551 -0.006973,1.419189 0.000168,2.614502c0.00531,0.889557 -0.020287,1.75827 0.221329,2.778503c0.163216,0.689178 0.520576,1.47995 1.178505,2.285675c0.553017,0.677246 1.075882,1.288513 1.574669,2.02533c0.451553,0.667053 0.856949,1.278351 1.046158,2.1315c0.183746,0.828522 0.906296,1.568481 1.579178,2.043152c0.734802,0.518372 1.86586,0.682709 2.233322,1.436005c0.339493,0.695953 0.129715,1.665466 0.223831,2.46167c0.114304,0.966888 0.358154,1.770721 0.647339,2.585663c0.369476,1.041168 0.700623,1.740692 1.052673,2.462494c0.403183,0.82663 0.902939,1.794586 1.222,2.511017c0.323181,0.725677 0.716736,1.806183 0.850159,2.495148c0.126633,0.65387 0.165222,1.636658 0.17067,2.650665c0.003845,0.716003 -0.000702,1.813934 0.057159,2.523499c0.079865,0.97937 0.320511,1.78775 0.590179,2.700836c0.294922,0.998627 0.358444,1.736969 0.352661,2.714355c-0.005417,0.91571 -0.040024,1.825287 -0.646667,2.483978c-0.573364,0.622589 -1.409729,0.880585 -2.353333,1.577332c-0.620651,0.458282 -1.19902,1.015594 -1.833328,1.833344c-0.443848,0.572205 -0.911758,1.406158 -1.709671,1.757324c-0.690002,0.30368 -1.593048,0.264069 -2.757004,0.685516c-0.617493,0.223602 -1.494774,0.752136 -2.099998,1.074493c-0.892677,0.475464 -1.806931,0.85733 -2.435997,1.071991c-0.645691,0.220337 -2.045883,0.617798 -2.789337,0.800018c-0.747292,0.183167 -1.48642,0.355682 -2.553329,0.489319c-0.992859,0.124359 -1.648453,0.129242 -2.305336,0.205353c-1.404808,0.162811 -2.140717,0.344452 -2.890663,0.490662c-0.740738,0.144409 -1.802277,0.327118 -2.800003,0.389313c-0.649895,0.040527 -1.309334,0.035339 -2.709335,0.036011c-0.741333,0.000366 -1.490662,0 -2.231995,0c-1.062172,0 -2.026672,0 -2.865166,0c-1.048172,0 -2.018837,0 -2.81884,0c-0.899994,0 -1.937668,0.15918 -2.589333,-0.446655c-0.61953,-0.575958 -0.511185,-1.621094 -0.944,-2.553345c-0.298286,-0.642487 -0.890762,-1.170105 -1.5,-2c-0.5681,-0.773865 -0.833092,-1.415314 -1.369331,-2.398682c-0.321823,-0.590179 -1.116554,-1.458374 -1.807167,-1.853149c-0.501358,-0.286591 -1.349808,-0.665253 -2.068832,-1.29068c-0.743439,-0.646667 -1.043373,-1.314301 -2.087997,-1.957489c-0.724876,-0.44632 -1.641693,-0.374512 -2.5,-0.833344c-0.759529,-0.406036 -1.031296,-1.115112 -1.817337,-2.063995c-0.486244,-0.586975 -0.994522,-1.100494 -1.901329,-1.552002c-0.915611,-0.455902 -1.628159,-0.747986 -2.364006,-1.235992c-0.488213,-0.323792 -1.452484,-1.049438 -1.998833,-1.567322c-0.753632,-0.714386 -1.249268,-1.274933 -1.853165,-1.763336c-0.954742,-0.772125 -1.743813,-1.124969 -2.293335,-1.783997c-0.62104,-0.744781 -1.119781,-1.264008 -2.105331,-1.533356c-0.76339,-0.208618 -1.673668,-0.471954 -2.253334,-0.967987c-0.72216,-0.617981 -1.534286,-0.74115 -2.41333,-1.198669c-0.820862,-0.427216 -1.530304,-0.957275 -2.433502,-1c-0.78429,-0.037079 -1.725166,0 -2.733166,0c-0.792,0 -1.652,-0.00061 -2.571167,0c-0.995502,0.000671 -1.816368,-0.053589 -2.795334,0.22168c-0.607418,0.170776 -1.335526,0.645477 -2.052002,1.426483c-0.575016,0.626801 -1.28664,1.125366 -1.998833,1.301178c-0.976089,0.240967 -1.794598,0.608978 -2.399998,1.272003c-0.69825,0.764709 -1.094906,1.206543 -1.849335,1.737c-0.712032,0.500641 -1.803417,0.766418 -2.5,1.375c-0.640186,0.559296 -1.040985,1.471527 -1.479168,2.145813c-0.513691,0.790497 -0.367313,1.769318 -0.6875,2.520844c-0.332829,0.781219 -0.822914,1.499817 -0.833332,2.399994c-0.010414,0.899933 0,1.801331 0,2.766663c0,0.8125 0,1.727997 0,2.543182c0,0.807495 -0.000076,1.879486 0,2.700836c0.000084,0.910828 -0.033997,1.815704 0.221333,2.789337c0.160751,0.612976 0.546909,1.389374 0.726002,2.40448c0.149273,0.846069 0.270412,1.817932 0.478001,2.6315c0.146797,0.575317 0.42532,1.761993 0.521999,2.664001c0.06419,0.598877 0.097069,1.507263 0.336666,2.700012c0.121403,0.60434 0.400436,1.493134 0.549332,2.399994c0.146168,0.890259 0.161335,1.763977 0.166668,2.833344c0.003517,0.704987 -0.088882,1.685699 0.010666,2.541321c0.112106,0.963562 0.476849,1.682922 1.156002,2.625336c0.451439,0.626434 1.0453,1.170715 1.666664,2c0.431828,0.576324 0.697018,1.387726 1.114002,2.238342c0.392906,0.801483 1.24345,1.157166 1.616665,1.983002c0.423229,0.936493 0.116379,1.919098 0.721333,2.609314c0.595531,0.679443 1.438274,0.907379 1.662003,1.822021c0.166935,0.682465 0.488667,1.711334 1.052666,2.347321c0.563999,0.635986 0.95285,1.481293 0.995499,2.347321c0.043827,0.889954 0.004501,1.874359 0.004501,2.819336c0,0.658691 0,1.666687 0,2.458679c0,1.027344 0,1.721985 0,2.738678c0,0.931488 0.121147,1.865906 -0.000168,2.735809c-0.111813,0.801758 -1.099667,0.900177 -1.999832,0.900177c-0.801334,0 -1.757168,0 -2.648167,0c-0.782501,0 -1.794666,0 -2.537167,0c-1.057499,0 -1.914665,0 -2.814667,0c-0.799999,0 -1.428986,-0.370636 -2.2215,-0.87851c-0.746571,-0.478424 -1.263771,-0.647095 -1.945168,-1.12149c-0.68391,-0.476135 -1.669205,0.200836 -2.533333,-0.057159c-0.858765,-0.256378 -1.584,-0.942841 -2.466667,-0.942841c-0.833332,0 -1.439606,-0.483765 -2.117332,-0.914673c-0.794407,-0.505096 -1.775562,-0.3703 -2.416,-0.732666c-0.820787,-0.464417 -1.30549,-1.142395 -2.178665,-1.352661c-0.804804,-0.193817 -1.621334,-0.520844 -2.221334,-1.099823l-0.6,-0.542999l-0.863998,-0.382507l-0.52,-0.690674" id="svg_27" stroke-linecap="null" stroke-linejoin="null" stroke-dasharray="null" stroke-width="5" stroke="#ff0000" fill="none"/>
 </g>
</svg>