<?xml version="1.0"?>
<svg width="640" height="480.00000000000006" xmlns="http://www.w3.org/2000/svg" xmlns:svg="http://www.w3.org/2000/svg">
 <!-- Created with SVG-edit - http://svg-edit.googlecode.com/ -->
 <g>
  <title>Layer 1</title>
  <ellipse ry="195" rx="214" id="svg_2" cy="245.399994" cx="310" stroke-linecap="null" stroke-linejoin="null" stroke-dasharray="null" stroke-width="5" stroke="#ffffff" fill="#000000"/>
  <line id="svg_4" y2="294.399994" x2="151" y1="198.399994" x1="216" stroke-linecap="null" stroke-linejoin="null" stroke-dasharray="null" stroke-width="8" stroke="#ffff00" fill="none"/>
  <line id="svg_5" y2="294.399994" x2="222" y1="201.399994" x1="143" stroke-linecap="null" stroke-linejoin="null" stroke-dasharray="null" stroke-width="8" stroke="#ffff00" fill="none"/>
  <line id="svg_8" y2="238.399994" x2="322" y1="237.399994" x1="248" stroke-linecap="null" stroke-linejoin="null" stroke-dasharray="null" stroke-width="8" stroke="#ffff00" fill="none"/>
  <line id="svg_9" y2="273.399994" x2="286" y1="202.399994" x1="287" stroke-linecap="null" stroke-linejoin="null" stroke-dasharray="null" stroke-width="8" stroke="#ffff00" fill="none"/>
  <path d="m408,192.399994c-1.041656,0 -2,0 -2.799988,0c-0.800018,0 -1.811615,0.029327 -2.714355,-0.057159c-0.82251,-0.078796 -1.790985,-0.295502 -2.485657,-0.442841c-0.694672,-0.147339 -1.954956,-0.404633 -2.749329,-0.464005c-0.754578,-0.056396 -1.893738,-0.030792 -2.565002,-0.040497c-0.727448,-0.010513 -1.498047,-0.020584 -2.685669,-0.16217c-0.802856,-0.095718 -1.599304,-0.262527 -2.399994,-0.40799c-0.799316,-0.145203 -1.998871,-0.31752 -2.795502,-0.368179c-0.782928,-0.049789 -1.547333,-0.054901 -2.983002,-0.057159c-0.664337,-0.001038 -1.61084,0 -2.220184,0c-1.199982,0 -2.080475,0.000549 -2.915985,0c-1,-0.000671 -1.887024,0.025543 -2.685333,-0.166672c-0.817413,-0.196808 -1.585266,-0.628616 -2.600006,-0.776169c-0.793365,-0.115356 -1.798676,-0.057159 -2.563995,-0.057159c-0.950653,0 -1.936005,0 -2.835999,0c-0.757172,0 -1.652679,0 -2.515991,0c-0.942352,0 -1.845673,0 -2.805328,0c-0.67868,0 -1.792023,0 -2.630524,0c-0.909485,0 -1.565491,0 -2.637482,0c-0.889832,0 -1.806763,-0.262924 -2.706177,0.004501c-0.762665,0.226761 -0.704498,1.295502 -0.704498,2.194168c0,0.88533 0,1.801331 0,2.558502c0,0.895493 0,1.758835 0,2.722c0,0.931488 0,1.842163 0,2.695496c0,0.94133 0,1.709335 0,2.650665c0,1.007996 0,1.764008 0,2.695496c0,0.963165 0,1.653839 0,2.726501c0,0.919342 0.007782,1.588699 0,2.75267c-0.005341,0.800064 -0.038116,1.613251 -0.283997,2.398666c-0.244598,0.781281 -0.673309,1.713242 -0.716003,2.701508c-0.033905,0.784424 0.091309,1.743973 -0.085327,2.415833c-0.266632,1.014175 -0.886017,1.782639 -0.914673,2.68399c-0.028595,0.899384 -0.507233,1.408997 -0.942841,2.157166c-0.42511,0.730133 -0.361053,1.692047 -0.704498,2.342834c-0.469086,0.888885 -0.25354,1.884079 -0.705322,2.595505c-0.505402,0.795868 -0.774994,1.483047 -1.147339,2.225327c-0.469635,0.936234 -0.497681,1.769318 -0.5,2.700668c-0.002197,0.87851 -0.241852,1.728607 -0.647339,2.421341c-0.426453,0.728561 0.25058,0.749847 0.622009,-0.042831c0.414948,-0.885513 1.057983,-1.570511 1.52533,-2.120834c0.647675,-0.762634 1.003204,-1.498367 1.299988,-2.080505c0.505463,-0.991409 0.845337,-1.779816 1.400024,-2.513336c0.548767,-0.725723 1.176636,-1.330887 1.966644,-1.88533c0.623322,-0.437469 1.312531,-1.149323 1.916016,-1.714661c0.553528,-0.518539 1.557892,-0.66835 2.264648,-0.932678c0.990906,-0.37059 1.585083,-1.03775 2.362518,-1.295502c0.768311,-0.25473 1.769318,-0.057159 2.711487,-0.057159c0.912018,0 1.588501,0 2.364014,0c1.293335,0 1.989319,0 2.898651,0c1.001343,0 1.836853,0 2.420502,0c1.195496,0 2.09552,0 2.695496,0c1.200012,0 2.09552,0 2.679169,0c0.83551,0 2.068176,-0.000046 2.746185,0c1.195831,0.000092 1.993866,-0.038605 2.764832,0.057159c0.875854,0.108795 1.632019,0.609482 2.552826,1.042679c0.709747,0.333908 1.558807,0.580582 2.457001,0.73349c0.889923,0.151505 1.775696,0.121521 2.833344,0.333344c0.716064,0.143402 1.530334,0.500168 2.282654,1.033325c0.660492,0.468079 1.343842,1.048584 2.058655,1.363998c1.0383,0.458145 1.882263,0.725708 2.52536,1.083344c0.853119,0.474411 1.769989,0.640686 2.133331,1.685989c0.223541,0.643127 0.123596,1.416794 0.166809,2.523666c0.032593,0.835312 0.629059,1.614685 0.878357,2.46434c0.242279,0.825684 0.12149,1.794662 0.12149,2.562668c0,0.94133 0,1.949326 0,2.705338c0,0.931488 0,1.731995 0,2.585327c0,0.940002 0,1.925507 0,2.710663c0,0.940002 0,1.947998 0,2.70401c0,0.91066 0.095459,1.855194 -0.283997,2.610657c-0.435577,0.867218 -0.670166,1.670609 -1.236847,2.320831c-0.538147,0.617477 -1.240204,1.123901 -1.8685,1.879166c-0.546051,0.656418 -0.668549,1.568085 -1.221313,2.246674c-0.526428,0.646271 -0.820587,1.431213 -1.556,2.186676c-0.584229,0.600159 -1.323608,0.92511 -1.848022,1.766663c-0.47818,0.767365 -1.052948,1.537292 -1.621307,2c-0.805603,0.655853 -1.574341,0.946747 -2.342682,1.500153c-0.681458,0.490845 -1.342651,1.221161 -1.84668,1.725189c-0.521973,0.521973 -1.208496,1.377441 -2.007996,2.007996c-0.676697,0.533722 -1.461334,0.813995 -2.272003,1.21933c-0.745331,0.37265 -1.623047,0.865204 -2.256317,1.299988c-0.772949,0.53067 -1.68277,0.502686 -2.616821,0.868683c-0.657043,0.257446 -1.528778,0.670258 -2.43219,0.789337c-0.926575,0.122131 -1.651947,0.412292 -2.346649,1.089142c-0.66803,0.650848 -1.299347,0.829529 -2.242676,1.066833c-0.795715,0.200165 -1.659546,0.681244 -2.442993,1.054688c-0.771606,0.367798 -1.752655,0.697815 -2.536163,0.757813c-0.851959,0.065216 -1.682251,0.0112 -2.563354,0.020996c-0.936829,0.010437 -1.90094,0.247314 -2.558319,0.647186c-0.710999,0.432495 -1.774475,0.64621 -2.263184,1.203339c-0.478668,0.545685 -1.335968,1.144806 -2.15683,1.149323c-0.963165,0.00528 -1.880615,0.296967 -2.717499,-0.009003c-0.825836,-0.301941 -0.607147,-1.44397 -1.118835,-2.22934c-0.478149,-0.733917 -1.493286,-0.773621 -2.142822,-1.282501c-0.766998,-0.600922 -0.981262,-1.416229 -1.552673,-2.121979c-0.591583,-0.730652 -1.447144,-1.102753 -1.825836,-1.800018c-0.358276,-0.659698 -0.125977,-1.799988 -0.342834,-2.656982l-0.494659,-0.614838" id="svg_10" stroke-linecap="null" stroke-linejoin="null" stroke-dasharray="null" stroke-width="8" stroke="#ffff00" fill="none"/>
  <path d="m474,201.399994c-1.757172,0 -2.657166,0 -3.40451,0c-0.995483,0 -1.795502,0 -2.795502,0c-0.799988,0 -1.799988,0 -2.589325,0c-1.044006,0 -1.906158,0 -2.710663,0c-0.899994,0 -1.889343,0 -2.785339,0c-0.814667,0 -1.714661,0 -2.514648,0c-0.900024,0 -1.800018,0 -2.700012,0c-0.899994,0 -1.916534,-0.135986 -2.669342,0.085327c-0.753418,0.221497 -1.426788,0.72934 -2.426147,1.210175c-0.742615,0.357315 -1.669434,0.588074 -2.571167,0.87117c-0.675171,0.211975 -1.690948,0.588562 -2.422668,0.858658c-0.870422,0.321304 -1.365509,0.810318 -2.416016,1.274673c-0.733704,0.324326 -1.680023,0.67012 -2.333313,1.099991c-0.854218,0.562073 -1.507355,0.966278 -2.177338,1.400009c-0.877228,0.567902 -1.303589,1.072281 -1.884003,2.02533c-0.415161,0.681671 -0.953003,1.392319 -1.399994,2.143997c-0.456543,0.767761 -0.667999,1.544632 -1,2.262665c-0.452728,0.979111 -0.974396,1.636353 -1.174683,2.604004c-0.156677,0.757065 -0.332916,1.784607 -0.729828,2.506836c-0.442291,0.804794 -1.025299,1.390671 -1.59549,2.30983c-0.422577,0.681198 -0.994415,1.406296 -1.342834,2.100006c-0.425781,0.847763 -0.1828,1.783066 -0.378021,2.726501c-0.181427,0.876831 -0.819366,1.473282 -1.177826,2.288834c-0.31543,0.717636 -0.555695,1.455566 -0.776001,2.591995c-0.133575,0.689072 -0.294067,1.696289 -0.546173,2.639999c-0.172363,0.645126 -0.608551,1.721481 -0.958313,2.479172c-0.387543,0.839539 -0.487427,1.525192 -0.516357,2.515488c-0.025177,0.862152 -0.004486,1.75351 -0.004486,2.658005c0,0.863342 0.041382,1.865082 -0.221344,2.668671c-0.287018,0.877853 -0.716492,1.65065 -0.777313,2.477325c-0.070313,0.955933 -0.001343,1.854004 -0.001343,2.717346c0,0.847992 -0.003418,1.792999 0,2.817322c0.002258,0.672028 -0.111786,1.451141 0.221344,2.523834c0.247894,0.798233 0.726624,1.625504 0.767975,2.3535c0.056122,0.987823 -0.057739,1.806488 0.177338,2.789337c0.196381,0.820953 0.634155,1.60025 1.033356,2.399994c0.399475,0.800293 0.799988,1.600006 1.199982,2.399994c0.399994,0.800018 0.848755,1.578979 1.164001,2.400024c0.375793,0.978668 0.397949,1.806549 0.52002,2.399994c0.208893,1.015381 0.618683,1.800873 1.115997,2.799988c0.29892,0.600555 0.784515,1.608124 1.099976,2.19101c0.381561,0.704987 1.31665,1.296143 1.725342,2.055664c0.414856,0.770966 0.461945,1.627441 1.279175,2.247986c0.770416,0.584991 1.494171,0.973816 1.985657,1.400024c0.849976,0.737061 1.621063,0.730865 2.535187,1.141327c0.712769,0.320038 1.491913,1.076508 2.341309,1.397339c0.630219,0.238037 1.659363,0.347198 2.422668,0.741333c0.803223,0.414734 1.555969,0.814453 2.296021,1.141327c0.891815,0.393921 1.758575,0.16272 2.593811,0.825653c0.780548,0.619537 0.825928,1.638184 1.621002,2.215332c0.564423,0.409698 1.552521,0.243011 2.415833,0.243011c0.984009,0 1.968018,0.001434 2.658661,0c1.077179,-0.002258 1.798706,-0.07016 2.835175,-0.352661c0.513123,-0.139862 1.304932,-0.377045 2.53302,-0.599182c0.645233,-0.116699 1.673553,-0.468414 2.257141,-0.909485c0.618286,-0.467285 1.58667,-1.279541 2.220856,-1.617828c0.650543,-0.347015 1.663147,-0.720856 2.479156,-1.020844c0.81601,-0.299988 1.818756,-0.691101 2.479156,-1c0.623474,-0.291626 1.620819,-0.800049 2.420837,-1.200012c0.799805,-0.399872 1.555908,-0.841492 2.43335,-1.133331c0.844147,-0.280762 1.579681,-0.752808 2.276489,-1.21933c0.697021,-0.466644 1.752655,-0.673859 2.528503,-0.942841c0.7565,-0.262268 0.89859,-1.400269 1.647003,-1.919159c0.673035,-0.466614 1.505127,-0.429535 1.936157,-1.185333c0.381561,-0.669098 1.283691,-1.234802 1.695831,-2.102661c0.275085,-0.579254 0.636414,-1.577545 1.124329,-2.318176c0.355194,-0.539185 1.164124,-1.552795 1.549347,-2.026489c0.545715,-0.671021 1.125854,-1.60675 1.299164,-2.405334c0.1763,-0.812469 0.242096,-1.890747 0.46701,-2.594666c0.220306,-0.689514 0.652588,-1.615692 0.94281,-2.409821c0.310516,-0.849762 0.497589,-1.444977 0.900024,-2.64151c0.198792,-0.591064 0.483887,-1.450531 0.899811,-2.479828c0.278809,-0.689941 0.694733,-1.505264 0.843018,-2.521515c0.115753,-0.79332 -0.021973,-1.80658 0.09317,-2.563995c0.147736,-0.971649 0.853882,-1.560471 1.353333,-2.246658c0.608337,-0.8358 0.549713,-1.591019 0.610809,-2.567841c0.051483,-0.822968 0.695587,-1.618561 0.91452,-2.506836c0.1745,-0.707962 -0.076996,-1.735046 0.121338,-2.64267c0.177094,-0.810364 0.917297,-1.438293 0.959503,-2.223831c0.054321,-1.010712 0.004486,-1.948166 0.004486,-2.85083c0,-0.768005 0,-1.563995 0,-2.510666c0,-1.03334 0,-1.85733 0,-2.695663c0,-0.988342 0,-1.719009 0,-2.757675c0,-0.933334 0,-1.833328 0,-2.633331c0,-0.842834 0.095612,-1.727127 -0.010681,-2.610657c-0.111664,-0.92807 -0.467499,-1.61586 -1.089142,-2.568008c-0.43515,-0.666534 -0.777649,-1.512543 -0.925507,-2.195999c-0.206787,-0.955765 -0.732697,-1.60939 -1.17334,-2.593338c-0.320374,-0.715424 -0.600739,-1.447693 -0.744171,-2.422165c-0.142426,-0.967743 0.096252,-1.862488 -0.278656,-2.78833c-0.271851,-0.671326 -1.183228,-1.261078 -1.493164,-1.90683c-0.422028,-0.879272 -0.373047,-1.998047 -0.806183,-2.593842c-0.581238,-0.799545 -1.312531,-1.354126 -1.915161,-1.956833c-0.663849,-0.663956 -1.055237,-1.353348 -1.563995,-2.043167c-0.486267,-0.659348 -1.248535,-1.218307 -2.166656,-1.520828c-0.791473,-0.260803 -1.590515,0 -2.486023,0c-0.863312,0 -1.826477,0 -2.747314,0c-0.899994,0 -1.803802,0.082123 -2.700012,-0.000168c-0.911438,-0.083679 -1.553711,-0.794815 -2.399994,-0.979004c-0.869537,-0.189255 -1.5,-0.520828 -2.110657,-1.010162l-0.889343,-0.010666l-0.899994,-0.010666l-0.895508,-0.341995" id="svg_11" stroke-linecap="null" stroke-linejoin="null" stroke-dasharray="null" stroke-width="8" stroke="#ffff00" fill="#000000"/>
 </g>
</svg>